<?xml version="1.0" encoding="utf-8"?>
<!-- Generator: Adobe Illustrator 24.3.0, SVG Export Plug-In . SVG Version: 6.00 Build 0)  -->
<svg version="1.1" id="a953921f-4c4e-4323-8cfc-8a6ae54c37d9"
	 xmlns="http://www.w3.org/2000/svg" xmlns:xlink="http://www.w3.org/1999/xlink" x="0px" y="0px" viewBox="0 0 949 568.7"
	 style="enable-background:new 0 0 949 568.7;" xml:space="preserve">
<style type="text/css">
	.st0{fill:#E6E6E6;}
	.st1{fill:#F2F2F2;}
	.st2{fill:#CCCCCC;}
	.st3{fill:#FFFFFF;}
	.st4{fill:#7FB8A4;}
	.st5{fill:#FFB8B8;}
	.st6{fill:#2F2E41;}
	.st7{fill:#A0616A;}
	.st8{fill:#3F3D56;}
</style>
<path class="st0" d="M368.5,509.5c-10.4,3.7-21.9,1.6-30.4-5.4c-10.7-8.9-14-23.7-16.7-37.3l-8-40.4l16.8,11.6
	c12.1,8.3,24.5,16.9,32.9,29s12,28.6,5.3,41.6"/>
<path class="st1" d="M367,558.4c1.7-12.4,3.5-25,2.3-37.5c-1.1-11.1-4.5-22-11.4-31c-3.7-4.7-8.1-8.8-13.2-12
	c-1.3-0.8-2.5,1.3-1.2,2.1c8.8,5.5,15.5,13.7,19.4,23.4c4.2,10.7,4.9,22.4,4.2,33.8c-0.4,6.9-1.4,13.7-2.3,20.6
	c-0.2,0.6,0.2,1.3,0.8,1.5C366.2,559.4,366.8,559,367,558.4L367,558.4z"/>
<path class="st0" d="M350.6,536.4c-4.5,6.8-12.1,10.7-20.2,10.4c-10.2-0.5-18.8-7.6-26.4-14.4l-22.7-20.1l15-0.7
	c10.8-0.5,21.9-1,32.2,2.3s19.8,11.4,21.7,22"/>
<path class="st1" d="M371.8,565.5c-8.2-14.5-17.7-30.6-34.7-35.8c-4.7-1.4-9.7-1.9-14.6-1.5c-1.6,0.1-1.2,2.5,0.4,2.4
	c8.2-0.7,16.5,1.5,23.3,6.2c6.6,4.5,11.7,10.7,16,17.3c2.7,4,5,8.3,7.4,12.5C370.4,567.8,372.6,566.9,371.8,565.5L371.8,565.5z"/>
<path class="st2" d="M591.7,274.7L412.9,423c-4.7,3.9-11.6,3.2-15.5-1.5l-75.4-91c-3.9-4.7-3.2-11.6,1.5-15.5l178.9-148.2
	c4.7-3.9,11.6-3.2,15.5,1.5l75.4,91C597,263.9,596.4,270.8,591.7,274.7z"/>
<path class="st3" d="M584.5,270.3L409.8,415.1c-2.4,2-6,1.7-8-0.7l-72-86.9c-2-2.4-1.7-6,0.7-8l174.7-144.8c2.4-2,6-1.7,8,0.7
	l72,86.9C587.3,264.7,587,268.3,584.5,270.3z"/>
<path class="st2" d="M592.6,300.6l-35.9-3.4l25.7-20.2l13.9,16.7c1.1,1.3,1.3,3.2,0.5,4.7c-0.3,0.5-0.6,0.9-1.1,1.3
	C594.8,300.4,593.7,300.7,592.6,300.6z"/>
<path class="st2" d="M520.4,236.2L432,309.5c-2.3,1.9-5.6,1.6-7.5-0.7c-1.9-2.3-1.6-5.6,0.7-7.5l88.4-73.3c2.3-1.9,5.6-1.6,7.5,0.7
	C523,231,522.7,234.3,520.4,236.2L520.4,236.2z"/>
<path class="st2" d="M477.2,242.6L417.5,292c-2.3,1.9-5.6,1.6-7.5-0.7c-1.9-2.3-1.6-5.6,0.7-7.5l0,0l59.6-49.4
	c2.3-1.9,5.6-1.6,7.5,0.7C479.7,237.3,479.4,240.7,477.2,242.6L477.2,242.6L477.2,242.6z"/>
<circle class="st4" cx="384.8" cy="326.9" r="16.7"/>
<circle class="st0" cx="517.5" cy="288.2" r="5.3"/>
<circle class="st0" cx="531.9" cy="276.2" r="5.3"/>
<circle class="st0" cx="546.3" cy="264.3" r="5.3"/>
<polygon class="st5" points="461.2,556.2 473.5,556.2 479.3,508.9 461.2,508.9 "/>
<path class="st6" d="M458.1,552.2l24.1,0h0c8.5,0,15.4,6.9,15.4,15.4c0,0,0,0,0,0v0.5l-39.5,0L458.1,552.2z"/>
<polygon class="st5" points="417.2,556.2 429.5,556.2 435.3,508.9 417.2,508.9 "/>
<path class="st6" d="M414.1,552.2l24.1,0h0c8.5,0,15.4,6.9,15.4,15.4c0,0,0,0,0,0v0.5l-39.5,0L414.1,552.2z"/>
<path class="st6" d="M429.5,541.7L429.5,541.7l-10.4,0c-2.4,0-4.4-1.9-4.5-4.3l-0.3-9.1c-2.6-72.9-5.4-148.4,11.5-182.3l0.1-0.3
	l55.9-2L493,446.6c0.5,4.4,0.3,8.8-0.5,13.2L477.6,538c-0.4,2.2-2.4,3.7-4.6,3.7l-11.7-0.4c-2.5-0.1-4.4-2.2-4.3-4.7
	c0-0.1,0-0.2,0-0.3l9.2-72.3c0.3-3.1,0-6.3-0.8-9.3l-11.4-40c-0.2-0.8-1.1-1.3-1.9-1c-0.6,0.2-1,0.6-1.1,1.2L434,537.9
	C433.6,540.1,431.7,541.7,429.5,541.7z"/>
<circle class="st5" cx="436.2" cy="216.3" r="24.6"/>
<path class="st4" d="M478.5,358.1H422c-2.8,0-5-2.2-5-5c0-0.2,0-0.5,0.1-0.7l2.8-19.1l-16.4-45.1c-6.3-17.2,2.6-36.3,19.8-42.5
	c2.2-0.8,4.5-1.4,6.8-1.7l0,0c14.3-2,28.3,5.6,34.5,18.7l3.6,7.7l15.2,81.9c0.5,2.7-1.3,5.3-4,5.8
	C479.1,358,478.8,358.1,478.5,358.1L478.5,358.1z"/>
<path class="st5" d="M371.9,394.5c5.8-1.3,9.4-7.1,8-12.9c-0.1-0.6-0.3-1.2-0.6-1.8l39.6-89.5l-22.7-5.7l-31.8,89.7
	c-5.3,2.7-7.4,9.2-4.7,14.5C362,393.3,367,395.6,371.9,394.5L371.9,394.5z"/>
<path class="st4" d="M413.6,306.3l-22-10.3c-2.4-1.1-3.4-4-2.3-6.4c0.1-0.2,0.2-0.4,0.3-0.6l13.4-20.2c3.2-6.7,11.2-9.5,17.8-6.3
	c6.6,3.2,9.5,11.1,6.4,17.7l-6.9,23.2c-0.8,2.5-3.4,4-6,3.2C414,306.5,413.8,306.4,413.6,306.3L413.6,306.3z"/>
<path class="st5" d="M537.1,164.2c1.8,5.7-1.3,11.7-7,13.5c-0.6,0.2-1.2,0.3-1.8,0.4L471.7,258l-16.5-16.5l60.8-73.3
	c-0.4-6,4.1-11.1,10.1-11.5C531,156.3,535.6,159.5,537.1,164.2L537.1,164.2z"/>
<path class="st4" d="M484.8,243.9c0.2,1.5-0.3,3.1-1.4,4.2l-18.2,19.8c-4.6,6.8-13.9,8.6-20.7,4c-6.8-4.6-8.6-13.8-4-20.6l11.7-24.3
	c1.3-2.7,4.5-3.8,7.1-2.5c0.2,0.1,0.5,0.2,0.7,0.4l22.4,15.2C483.7,240.9,484.6,242.3,484.8,243.9z"/>
<path class="st6" d="M468.5,206c0-2.2-0.3-4.4-0.9-6.6c-4-14.6-18.6-23.4-33.2-21.2c-2.9-0.8-5.8-1.2-8.8-1.2l0,0
	c-15.6,0-28.9,11.4-31.2,26.8L382.5,280h64l10.3-66.5c0.4-2.5,0.5-5,0.3-7.5H468.5z"/>
<path class="st2" d="M548,568.7H337c-0.6,0-1-0.4-1-1s0.4-1,1-1h211c0.6,0,1,0.4,1,1S548.6,568.7,548,568.7z"/>
<path class="st7" d="M760.6,77.7c5.5-0.5,10.4,3.5,11,9c0.1,0.6,0.1,1.2,0,1.8l32.7,14.4L788.7,113L760,97.7
	c-5.5-0.8-9.3-6-8.5-11.5C752.2,81.6,755.9,78.1,760.6,77.7L760.6,77.7z"/>
<circle class="st7" cx="892.5" cy="35.1" r="24.6"/>
<polygon class="st7" points="848,385.4 835.8,385.4 830,338.1 848.1,338.1 "/>
<path class="st6" d="M851.2,397.2l-39.5,0v-0.5c0-8.5,6.9-15.4,15.4-15.4c0,0,0,0,0,0h0l24.1,0L851.2,397.2z"/>
<polygon class="st7" points="899,385.4 886.8,385.4 881,338.1 899.1,338.1 "/>
<path class="st6" d="M902.2,397.2l-39.5,0v-0.5c0-8.5,6.9-15.4,15.4-15.4c0,0,0,0,0,0h0l24.1,0L902.2,397.2z"/>
<path class="st6" d="M898.5,375.3c-0.2,0-0.4,0-0.5,0L880,373c-2.2-0.3-3.8-2.1-3.9-4.2L870.8,251c0-0.8-0.8-1.5-1.6-1.4
	c-0.6,0-1,0.4-1.3,0.9l-13.4,44.8l-2.8,71.9c-0.1,2.5-2.2,4.4-4.7,4.3c-0.1,0-0.2,0-0.4,0l-15.5-1.8c-2.3-0.3-4-2.2-4-4.6l1.3-67.7
	l10.5-106.3l0.5,0l64,2.5L903,370.8C903,373.3,900.9,375.3,898.5,375.3z"/>
<path class="st8" d="M901.1,203.3c0,0-0.1,0-0.1,0l-64.5-1.7c-2.5-0.1-4.4-2.1-4.4-4.6c0-0.2,0-0.3,0-0.5l12.4-91.2
	c1.6-12.5,8.4-23.7,18.7-30.8c9.1-6.3,20.4-8.3,31.1-5.5c22.5,5.7,36,29.9,30.1,53.9l-19,77C905,201.9,903.2,203.3,901.1,203.3z"/>
<path class="st8" d="M816.5,130.9c-4.2,0-8.4-1.2-12-3.6L767,102.7c-2.1-1.4-2.7-4.2-1.3-6.2c0.1-0.2,0.3-0.4,0.5-0.6l5.7-6
	c1.3-1.3,3.2-1.8,4.9-1.1l42,16.7l38.9-27.8c7.3-5.2,17.3-3.5,22.5,3.8c5.2,7.3,3.5,17.3-3.8,22.5c-0.7,0.5-1.5,1-2.3,1.4L826,128.7
	C823.1,130.2,819.8,130.9,816.5,130.9z"/>
<path class="st6" d="M901,58.6c4.2,1,9.2,1.7,12.2-1.3c0.5-0.6,1-1.2,1.4-1.9l3.9-6c3-4.6,6.1-9.3,7.3-14.6
	c3-12.8-4.8-25.6-17.6-28.6c-0.1,0-0.2,0-0.3-0.1c-5.8-1.3-11.6-3.6-17.5-3.1s-13,0.3-18-3c0.3,1.5,2,7.9,2,7.9s-7.5,6.9-9.1,8.6
	c7.2-3.2,15.5,0.1,18.7,7.2c0.5,1.1,0.8,2.3,1,3.5c0.4,2.6,0.2,5.5,1.7,7.7c1.5,2,4.1,2.8,6.4,4c6.7,3.8,9.6,11.9,6.8,19L901,58.6z"
	/>
<path class="st2" d="M871.5,212.1H667.9c-5.3,0-9.6-4.3-9.7-9.7V98.9c0-5.3,4.3-9.6,9.7-9.7h203.6c5.3,0,9.6,4.3,9.7,9.7v103.5
	C881.2,207.8,876.9,212.1,871.5,212.1z"/>
<path class="st3" d="M869.2,205.1H670.3c-2.7,0-5-2.2-5-5v-98.9c0-2.7,2.2-5,5-5h198.9c2.7,0,5,2.2,5,5v98.9
	C874.2,202.9,871.9,205.1,869.2,205.1z"/>
<path class="st2" d="M857.7,230.1l-22.4-22.4l28.7,0.7v19c0,1.5-0.9,2.9-2.3,3.4c-0.5,0.2-0.9,0.3-1.4,0.3
	C859.3,231.1,858.3,230.8,857.7,230.1z"/>
<path class="st2" d="M845,146.3H744.3c-2.6,0-4.7-2.1-4.7-4.7c0-2.6,2.1-4.7,4.7-4.7H845c2.6,0,4.7,2.1,4.7,4.7
	C849.6,144.2,847.5,146.3,845,146.3z"/>
<path class="st2" d="M812.2,126.4h-67.9c-2.6,0-4.7-2.1-4.7-4.7c0-2.6,2.1-4.7,4.7-4.7h67.9c2.6,0,4.7,2.1,4.7,4.7
	C816.9,124.3,814.8,126.4,812.2,126.4z"/>
<circle class="st4" cx="702.7" cy="131.6" r="14.6"/>
<circle class="st0" cx="814" cy="179.7" r="4.7"/>
<circle class="st0" cx="830.3" cy="179.7" r="4.7"/>
<circle class="st0" cx="846.7" cy="179.7" r="4.7"/>
<path class="st7" d="M868.4,199.8c0.6-5.5,5.6-9.5,11.1-8.9c0.6,0.1,1.2,0.2,1.7,0.3l20.8-29.1l6.7,17.3l-20.8,24.9
	c-1.9,5.2-7.7,7.9-13,6C870.5,208.8,867.8,204.4,868.4,199.8z"/>
<path class="st8" d="M892.2,198.2c-0.3,0-0.7,0-1,0c-1.3-0.2-2.5-0.9-3.2-2.1l-4.4-7c-1-1.6-0.9-3.6,0.2-5l26.6-36.6L893.1,103
	c-3.2-8.2,0.7-17.4,8.8-20.7l0,0c8.2-3.5,17.7,0.4,21.1,8.6c0.4,1,0.7,2,0.9,3l10.7,52.4c1.5,7.5-1,15.3-6.7,20.5l-33.2,30.3
	C894.1,197.7,893.2,198.1,892.2,198.2z"/>
<path class="st2" d="M948,399.7H737c-0.6,0-1-0.4-1-1s0.4-1,1-1h211c0.6,0,1,0.4,1,1S948.6,399.7,948,399.7z"/>
<path class="st2" d="M256.6,150.8H53c-5.3,0-9.6-4.3-9.7-9.7V37.6c0-5.3,4.3-9.6,9.7-9.7h203.6c5.3,0,9.6,4.3,9.7,9.7v103.5
	C266.3,146.5,261.9,150.8,256.6,150.8z"/>
<path class="st3" d="M254.3,143.8H55.4c-2.7,0-5-2.2-5-5V39.9c0-2.7,2.2-5,5-5h198.9c2.7,0,5,2.2,5,5v98.9
	C259.2,141.5,257,143.8,254.3,143.8z"/>
<path class="st2" d="M242.8,168.7l-22.4-22.4l28.7,0.7v19c0,1.5-0.9,2.9-2.3,3.4c-0.5,0.2-0.9,0.3-1.4,0.3
	C244.4,169.8,243.4,169.4,242.8,168.7z"/>
<path class="st2" d="M230.1,84.9H129.4c-2.6,0-4.7-2.1-4.7-4.7s2.1-4.7,4.7-4.7h100.6c2.6,0,4.7,2.1,4.7,4.7S232.6,84.9,230.1,84.9z
	"/>
<path class="st2" d="M197.3,65h-67.9c-2.6,0-4.7-2.1-4.7-4.7s2.1-4.7,4.7-4.7h67.9c2.6,0,4.7,2.1,4.7,4.7S199.9,65,197.3,65
	L197.3,65z"/>
<circle class="st4" cx="87.8" cy="70.3" r="14.6"/>
<circle class="st0" cx="199" cy="118.4" r="4.7"/>
<circle class="st0" cx="215.4" cy="118.4" r="4.7"/>
<circle class="st0" cx="231.8" cy="118.4" r="4.7"/>
<path class="st5" d="M248.2,18c-5.2,1.9-7.9,7.6-6.1,12.9c0.2,0.6,0.4,1.1,0.7,1.6l-23.4,27l18.4,2.4l19.4-26
	c4.6-3.1,5.9-9.4,2.8-14C257.5,18,252.6,16.4,248.2,18z"/>
<path class="st5" d="M91.8,28.8c1.9,5.2-0.8,11-6,12.9c-0.6,0.2-1.1,0.4-1.7,0.5l-5.8,35.3L64.6,64.7l7.6-31.5
	c-0.6-5.6,3.5-10.5,9-11.1C85.9,21.6,90.2,24.4,91.8,28.8L91.8,28.8z"/>
<polygon class="st5" points="128.4,385.4 140.7,385.4 146.5,338.1 128.4,338.1 "/>
<path class="st6" d="M125.3,381.4l24.1,0h0c8.5,0,15.4,6.9,15.4,15.4c0,0,0,0,0,0v0.5l-39.5,0L125.3,381.4z"/>
<polygon class="st5" points="65.4,385.4 77.7,385.4 83.5,338.1 65.4,338.1 "/>
<path class="st6" d="M62.3,381.4l24.1,0h0c8.5,0,15.4,6.9,15.4,15.4c0,0,0,0,0,0v0.5l-39.5,0L62.3,381.4z"/>
<circle class="st5" cx="125.8" cy="37.9" r="24.6"/>
<path class="st6" d="M122.9,369.7l-2-129.4c0-0.8-0.7-1.5-1.5-1.5c-0.7,0-1.3,0.5-1.4,1.2L84.6,366.5c-0.5,2.1-2.4,3.5-4.6,3.5
	l-18.3-0.8c-2.5-0.1-4.4-2.2-4.3-4.7c0-0.1,0-0.2,0-0.4l28.2-162.7l0.1-0.5l78.7,3.7l0.5,0l-16.9,165.2c-0.2,2.3-2.1,4.2-4.5,4.2
	h-16.2C124.9,374.1,122.9,372.1,122.9,369.7z"/>
<path class="st6" d="M185,215.7l-114.2-9.4c-2.5-0.2-4.3-2.4-4.1-4.9c0-0.4,0.1-0.8,0.3-1.2l18-49.7l1-59
	c0.2-8.9,7.5-16.1,16.5-15.9c0.1,0,0.1,0,0.2,0l7.6-6.9h27.8l2.4,3.2l19.4,3c7.1,1.1,12.6,6.7,13.6,13.8l16.4,121.8
	c0.3,2.5-1.4,4.7-3.9,5.1c-0.2,0-0.4,0-0.6,0C185.3,215.7,185.2,215.7,185,215.7z"/>
<path class="st6" d="M162.8,80.7l48.7-14.3l22-29c1.2-1.6,3.5-2.2,5.4-1.4l13.8,5.9c2.3,1,3.3,3.6,2.4,5.9c-0.1,0.2-0.2,0.3-0.3,0.5
	l-16.5,28.3c-2.7,4.6-6.8,8.3-11.7,10.4l-57.3,25.3L162.8,80.7z"/>
<path class="st6" d="M69.4,102c-5.9-4.3-9.2-11.3-8.6-18.6l2.1-28.3c0.2-2.3,2.1-4.2,4.5-4.2h0l16.1,0.1c2.5,0,4.5,2.1,4.5,4.5
	c0,0.3,0,0.6-0.1,0.8l-3,15.3l21.4,9l-18,35L69.4,102z"/>
<path class="st6" d="M140.1,8.5c0,0-25.7-13.8-39.7,2.5s5.3,41.8,5.3,41.8l27.5,3.5c0,0,1-18.7,7.6-18.4S167.8,14.7,140.1,8.5z"/>
<path class="st2" d="M212,398.7H1c-0.6,0-1-0.4-1-1s0.4-1,1-1h211c0.6,0,1,0.4,1,1S212.6,398.7,212,398.7z"/>
</svg>
