<?xml version="1.0" encoding="utf-8"?>
<!-- Generator: Adobe Illustrator 24.3.0, SVG Export Plug-In . SVG Version: 6.00 Build 0)  -->
<svg version="1.1" id="b66c9c51-8109-402d-a3f9-100a5bb3d153"
	 xmlns="http://www.w3.org/2000/svg" xmlns:xlink="http://www.w3.org/1999/xlink" x="0px" y="0px" viewBox="0 0 890.3 489.3"
	 style="enable-background:new 0 0 890.3 489.3;" xml:space="preserve">
<style type="text/css">
	.st0{fill:#E6E6E6;}
	.st1{fill:#FFFFFF;}
	.st2{fill:#7FB8A4;}
	.st3{fill:#3F3D56;}
	.st4{fill:#A0616A;}
	.st5{fill:#2F2E41;}
	.st6{fill:#575A89;}
	.st7{fill:#FFB8B8;}
	.st8{fill:#D0CDE1;}
	.st9{opacity:0.2;enable-background:new    ;}
</style>
<rect x="183" y="0.4" class="st0" width="703.6" height="450.6"/>
<rect x="245.2" y="60.9" class="st1" width="254" height="261"/>
<rect x="594.2" y="66" class="st1" width="254" height="317"/>
<ellipse class="st0" cx="844.8" cy="477.3" rx="45.5" ry="6.5"/>
<ellipse class="st0" cx="389.9" cy="477.4" rx="45.5" ry="6.5"/>
<ellipse class="st0" cx="104.4" cy="470.9" rx="104.4" ry="5"/>
<rect x="182.7" class="st2" width="703.6" height="29.9"/>
<circle class="st0" cx="204.9" cy="15.3" r="5.5"/>
<circle class="st0" cx="225.9" cy="15.3" r="5.5"/>
<circle class="st0" cx="246.9" cy="15.3" r="5.5"/>
<path class="st3" d="M792.2,151h-1.5v-42.2c0-13.5-10.9-24.4-24.4-24.4c0,0,0,0,0,0H677c-13.5,0-24.4,10.9-24.4,24.4c0,0,0,0,0,0
	v231.2c0,13.5,10.9,24.4,24.4,24.4c0,0,0,0,0,0h89.3c13.5,0,24.4-10.9,24.4-24.4c0,0,0,0,0,0V181h1.5L792.2,151z"/>
<path class="st1" d="M766.2,90.8h-11.7c1.8,4.4-0.3,9.5-4.7,11.3c-1,0.4-2.1,0.6-3.3,0.6h-51.2c-4.8,0-8.7-3.9-8.7-8.7
	c0-1.1,0.2-2.2,0.6-3.3h-10.9c-10.1,0-18.2,8.2-18.2,18.2c0,0,0,0,0,0v230.9c0,10.1,8.2,18.2,18.2,18.2h0h89.7
	c10.1,0,18.2-8.2,18.2-18.2l0,0V109C784.5,99,776.3,90.8,766.2,90.8L766.2,90.8z"/>
<rect x="284.1" y="225.8" class="st0" width="176.5" height="8.1"/>
<rect x="284.1" y="251.8" class="st2" width="176.5" height="8.1"/>
<rect x="284.1" y="277.8" class="st0" width="176.5" height="8.1"/>
<rect x="670.8" y="243.3" class="st0" width="103.1" height="8.1"/>
<rect x="670.8" y="268.3" class="st0" width="103.1" height="8.1"/>
<rect x="670.8" y="293.3" class="st0" width="103.1" height="8.1"/>
<rect x="767.5" y="401.2" class="st3" width="17.2" height="17.2"/>
<rect x="739.8" y="401.2" class="st2" width="17.2" height="17.2"/>
<rect x="712.2" y="401.2" class="st3" width="17.2" height="17.2"/>
<rect x="684.5" y="401.2" class="st3" width="17.2" height="17.2"/>
<rect x="656.8" y="401.2" class="st3" width="17.2" height="17.2"/>
<rect x="692.7" y="139" class="st2" width="57.3" height="57.3"/>
<path class="st4" d="M349.6,275.6l-0.7,1.5l-2.2-11.1c0,0-3-11.9,3-11.9s4.4,11.9,4.4,11.9v8.2L349.6,275.6z"/>
<path class="st4" d="M446.8,274.1l0.7,1.5l2.2-11.1c0,0,3-11.9-3-11.9s-4.4,11.9-4.4,11.9v8.2L446.8,274.1z"/>
<polygon class="st5" points="382.2,358.9 373.3,413.8 377.8,467.1 388.1,462.7 386.7,422.7 397,390.8 399.3,428.6 394.8,467.9 
	408.2,469.4 417.8,388.6 417,361.2 "/>
<path class="st5" d="M382.2,460.5l-5.2,8.2v18.2c0,1.1,0.8,2,1.9,2.2c2.5,0.4,7,0.7,8.5-1.9c2.2-3.7,0.7-11.9,0.7-11.9
	s3-5.9,1.5-10.4s-3-5.2-3-5.2L382.2,460.5z"/>
<path class="st5" d="M404.4,467.9l1.5,2.2c0,0,2.2,2.2,0.7,3.7c-1.1,1.2-2.1,2.4-3,3.7c0,0-8.2,2.2-8.2-0.7v-9.6L404.4,467.9z"/>
<circle class="st4" cx="401.8" cy="288.8" r="9.8"/>
<polygon class="st4" points="395.2,291.9 394.4,305.9 407.8,306.7 407,292.6 "/>
<path class="st6" d="M409.6,307.1l-2.1-5.1c0,0-9.8-3.8-12.7,0l-1.5,4.4l-11.9-3l-6.7,14.8l5.9,42.2c0,0,15.6,20,36.3,0.7l5.9-40
	l-4.4-15.6L409.6,307.1z"/>
<polygon class="st6" points="417,308.5 418.5,305.6 433.4,296.7 442.4,269.9 449.4,272.9 441.5,304.8 420,324.8 "/>
<polygon class="st6" points="383,304.8 381.5,303.4 365.9,293.7 354.8,271.5 345.9,274.5 355.5,301.9 379.3,321.1 "/>
<path class="st5" d="M409.1,273.8l1.6-0.8l-2.4-0.8v-0.8c0,0-12-4.8-13.7,3.2c-4.3,5.7-4.3,13.6,0,19.3v2.4l12.9,1.6l1.6-4.8
	C409.1,293,417.1,278.6,409.1,273.8z"/>
<path class="st7" d="M115.1,359.8l-2.9,1.4c0,0-11.4,5.2-8.1,8.1c3.3,2.9,12.4-2.9,12.4-2.9l1.9-2.4L115.1,359.8z"/>
<polygon class="st5" points="198.6,359.1 189.8,418.3 176.5,459.7 169.3,456.4 176,399.8 157,383.6 158.4,359.8 "/>
<path class="st5" d="M168.4,457.8c0,0,8.1-4.3,8.6,1.9l-1,6.2c0,0,2.9,10.9-6.7,8.6s-2.9-9.5-2.9-9.5L168.4,457.8z"/>
<path class="st5" d="M163.2,378.4l-6.2,5.2c0,0,0,32.4,4.3,37.1s31.4,29,32.4,30s5.2-9.5,5.2-9.5l-25.7-30l1.9-18.6L163.2,378.4z"/>
<path class="st5" d="M196,439.8c0,0,7.6-1.4,7.6,3.8c0.1,4.1,0.4,8.3,1,12.4c0,0,1.9,16.7-4.3,14.3s-8.6-19-8.6-19
	c0.6-1.4,1.6-2.6,2.9-3.3C196.5,446.9,196,439.8,196,439.8z"/>
<polygon class="st7" points="172.2,288.4 173.6,306 169.8,312.7 159.3,302.7 158.4,289.4 "/>
<circle class="st7" cx="163.6" cy="282.7" r="11.4"/>
<polygon class="st8" points="168.4,305.6 173.1,291.8 181.7,301.3 197.4,361.7 185.5,368.9 180.3,361.2 179.3,371.2 156,366.5 
	154.1,302.7 158.9,296 "/>
<polygon class="st5" points="161.7,373.1 158.9,296 152.7,300.8 141.3,308.4 148.9,335.5 151.3,364.1 "/>
<polygon class="st5" points="144.6,308.9 141.3,308.4 131.7,336.5 112.7,360.3 119.8,367.9 141.7,346.5 149.8,328.9 "/>
<path class="st7" d="M196.6,360.2l-0.6,3.1c0,0-3,12.2,1.3,11.4s5.4-11.5,5.4-11.5l-0.7-3L196.6,360.2z"/>
<polygon class="st5" points="172.4,291 196,300.3 193.1,328.9 198.8,360.3 193.1,366.5 172,295 "/>
<path class="st5" d="M164.2,263.5l3.4-1.7v1.7l2.2-1.1v2.8c0,0,8.4,6.1,6.7,13.4s-1.7,7.8-1.7,7.8s-2.1-13.8-10.5-11.6
	c-8.4,2.2-9.1,2.6-11.3,8.8l-0.6,2.6C152.4,286.3,143,264.6,164.2,263.5z"/>
<polygon class="st5" points="192.7,300.3 196.5,300.3 202.7,333.6 202.7,362.7 195,361.2 188.9,317.5 "/>
<rect x="3.5" y="370.8" class="st2" width="140.3" height="97.5"/>
<path class="st1" d="M73.7,389.8c-16.4,0-29.7,13.3-29.7,29.7s13.3,29.7,29.7,29.7s29.7-13.3,29.7-29.7
	C103.4,403.1,90.1,389.8,73.7,389.8z M73.7,398.7c4.9,0,8.9,4,8.9,8.9s-4,8.9-8.9,8.9c-4.9,0-8.9-4-8.9-8.9l0,0
	C64.8,402.7,68.8,398.7,73.7,398.7z M73.7,441.7c-7.2,0-13.8-3.6-17.8-9.5c0.1-5.9,11.9-9.2,17.8-9.2s17.7,3.3,17.8,9.2
	C87.5,438.1,80.8,441.6,73.7,441.7z"/>
<rect x="284.2" y="90.9" class="st0" width="176" height="101"/>
<path class="st7" d="M808.2,291.2l0.8-5.3c0,0,4.8-10.8,1-11.4s-6.9,9.7-6.9,9.7l1.4,11L808.2,291.2z"/>
<polygon class="st6" points="846.7,321.1 813.1,314.3 809.2,289.8 799.3,289.1 799.8,320.7 829,336 "/>
<polygon class="st9" points="846.7,321.1 813.1,314.3 809.2,289.8 799.3,289.1 799.8,320.7 829,336 "/>
<rect x="755.3" y="276.7" class="st2" width="103.1" height="8.1"/>
<path class="st7" d="M801.6,289.4l0-5.3c0,0,3.1-11.4-0.7-11.4s-5.3,10.6-5.3,10.6l3,10.6L801.6,289.4z"/>
<path class="st5" d="M845.4,304.7l4.6-1.1c6.6,0,11.9-5.3,11.9-11.8c0-0.8-0.1-1.6-0.2-2.4l0,0c0-8.6-6.9-15.5-15.5-15.5l0,0l0,0
	c-8.6,0-15.5,6.9-15.5,15.5l0,0l0,0c-1.9,6.5,1.9,13.4,8.4,15.2C841.1,305.1,843.3,305.2,845.4,304.7z"/>
<polygon class="st5" points="818.3,381.5 822,422.5 828.8,462.8 840.2,462.8 838.7,423.3 832.7,375.4 "/>
<path class="st5" d="M830.3,460.6l-7.6,4.6c0,0-12.2,1.5-9.9,5.3s28.9,1.6,28.9,0s-0.7-9.9-2.3-9.9L830.3,460.6z"/>
<path class="st5" d="M851.9,377.9c0,0-0.2,5.9-5.5,15l0.7,28.1l27.3,35l-9.9,8.4l-33.4-38.1l-8.3-45.6l10.7-10.6L851.9,377.9z"/>
<path class="st5" d="M872.1,456c0,0,9.1,1.5,7.6,5.3s-5.3,21.3-15.2,19c0,0-4.6,0-3-3c0.9-1.8,1.9-3.6,3-5.3l0-9.9L872.1,456z"/>
<circle class="st7" cx="840.4" cy="294" r="11.4"/>
<polygon class="st7" points="845.7,301.7 845.7,314.6 833.5,314.6 835.1,301.6 "/>
<path class="st6" d="M830.5,310l3.7-0.9l11.5,0.9c0,0,6.1,6.1,5.3,7.6s-4.6,38.8-4.6,38.8l6.8,26.6l-24.3,1.5l-12.2-1.5l2.3-47.9
	c0,0-5.3-12.9,1.5-16.7C824.5,316.3,827.9,313.5,830.5,310z"/>
<polygon class="st6" points="844.2,313.1 810,311.5 802.4,287.9 792.5,288.7 797.8,319.8 829,330.5 "/>
<circle class="st5" cx="862.4" cy="278.3" r="7.4"/>
<path class="st5" d="M855.6,274.3c0-4.1,3.3-7.4,7.4-7.3c0.5,0,1,0,1.4,0.1c-3.7-1.7-8.1-0.2-9.8,3.5c-1.7,3.7-0.2,8.1,3.5,9.8
	c0.5,0.3,1.1,0.4,1.7,0.6C857.3,279.8,855.6,277.2,855.6,274.3z"/>
<path class="st5" d="M849.3,278.5l-9.9-1.8l-7.6,4.8c-3.8,2.4-5.9,6.8-5.3,11.3l7.6-1.9l1.7-4.3l2,3.3l8.3,14.5l8.4-4.6l5.3-8.4
	L849.3,278.5z"/>
<rect x="371.2" y="39.9" transform="matrix(0.4977 -0.8673 0.8673 0.4977 64.2913 393.8342)" class="st1" width="2" height="202.9"/>
<rect x="270.7" y="140.4" transform="matrix(0.8674 -0.4977 0.4977 0.8674 -21.0101 203.9787)" class="st1" width="202.9" height="2"/>
<rect x="720.7" y="127.1" transform="matrix(0.7071 -0.7071 0.7071 0.7071 93.0025 559.3422)" class="st1" width="2" height="80.6"/>
<rect x="681.4" y="166.4" transform="matrix(0.7071 -0.7071 0.7071 0.7071 93.0025 559.3422)" class="st1" width="80.6" height="2"/>
</svg>
